<svg width="34" height="24" viewBox="0 0 34 24" fill="none" xmlns="http://www.w3.org/2000/svg">
<path d="M3.2 20.0257L3.1744 4.00005H28.8V3.97445C28.8 3.13255 28.4656 2.32513 27.8702 1.72981C27.2749 1.13449 26.4675 0.800049 25.6256 0.800049H3.1744C2.3325 0.800049 1.52508 1.13449 0.92976 1.72981C0.334445 2.32513 0 3.13255 0 3.97445V20.0257C0 20.8676 0.334445 21.675 0.92976 22.2703C1.52508 22.8656 2.3325 23.2 3.1744 23.2H25.6256C26.4675 23.2 27.2749 22.8656 27.8702 22.2703C28.4656 21.675 28.8 20.8676 28.8 20.0257V20H25.6256L3.2 20.0257Z" fill="#2B2D33"/>
<path d="M25.6 18.4H27.4096L33.8096 12L27.4096 5.60005H25.6V7.40965L28.5904 10.4H14.4V13.6H28.5904L25.6 16.5904V18.4Z" fill="#2B2D33"/>
</svg>
