<svg width="30" height="33" viewBox="0 0 30 33" fill="none" xmlns="http://www.w3.org/2000/svg">
<path fill-rule="evenodd" clip-rule="evenodd" d="M24.6001 3.9312H26.2257C26.6426 3.9312 27.0554 4.01331 27.4405 4.17284C27.8256 4.33237 28.1756 4.56619 28.4703 4.86096C28.7651 5.15573 28.9989 5.50568 29.1585 5.89081C29.318 6.27595 29.4001 6.68873 29.4001 7.1056V29.5568C29.4001 29.9737 29.318 30.3865 29.1585 30.7716C28.9989 31.1567 28.7651 31.5067 28.4703 31.8014C28.1756 32.0962 27.8256 32.33 27.4405 32.4896C27.0554 32.6491 26.6426 32.7312 26.2257 32.7312H3.7745C2.93259 32.7312 2.12517 32.3968 1.52986 31.8014C0.934542 31.2061 0.600098 30.3987 0.600098 29.5568V7.1056C0.600098 6.2637 0.934542 5.45628 1.52986 4.86096C2.12517 4.26565 2.93259 3.9312 3.7745 3.9312H7.0001V0.731201H10.2001V8.7312H7.0001V7.1312H3.7809V11.9312H26.2001V7.1312H24.6001V3.9312ZM3.7841 15.1312L3.8001 29.5568L26.2257 29.5312L26.2081 15.1312H3.7841Z" fill="#2B2D33"/>
<path d="M23.0001 8.7312H19.8001V7.1312H11.8001V3.9312H19.8001V0.731201H23.0001V8.7312Z" fill="#2B2D33"/>
</svg>
