<svg width="32" height="30" viewBox="0 0 32 30" fill="none" xmlns="http://www.w3.org/2000/svg">
<path d="M25.6 16.6H22.4V19.8H25.6V16.6Z" fill="#2B2D33"/>
<path d="M4.8 3.79998H32V0.599976H4.8C3.61197 0.603631 2.46772 1.04876 1.58953 1.84889C0.711336 2.64902 0.161916 3.74702 0.0480003 4.92958L0 4.87517V26.2C0 27.0487 0.337142 27.8626 0.937258 28.4627C1.53737 29.0628 2.35131 29.4 3.2 29.4H28.8C29.6487 29.4 30.4626 29.0628 31.0627 28.4627C31.6629 27.8626 32 27.0487 32 26.2V6.99998H4.8C4.37565 6.99998 3.96869 6.8314 3.66863 6.53135C3.36857 6.23129 3.2 5.82432 3.2 5.39998C3.2 4.97563 3.36857 4.56866 3.66863 4.2686C3.96869 3.96855 4.37565 3.79998 4.8 3.79998ZM4.8 10.2H28.8V26.2H3.2V9.90397C3.71215 10.0946 4.25354 10.1948 4.8 10.2Z" fill="#2B2D33"/>
</svg>
